<svg xmlns="http://www.w3.org/2000/svg" data-name="S_Article_18_N@2x" height="36" id="S_Article_18_N_2x" viewBox="0 0 36 36" width="36">
  <defs>
    <style>
      .fill {
        fill: #707070;
      }

      
    </style>
  </defs>
  <rect class="fill" height="2" width="10" x="20" y="10" />
  <rect class="fill" height="2" width="10" x="20" y="18" />
  <rect class="fill" height="2" width="12" x="6" y="22" />
  <rect class="fill" height="2" width="10" x="20" y="14" />
  <rect class="fill" height="2" width="10" x="20" y="22" />
  <rect class="fill" height="10" width="12" x="6" y="10" />
  <path class="fill" d="M33,4H3A1,1,0,0,0,2,5V29a1,1,0,0,0,1,1H33a1,1,0,0,0,1-1V5A1,1,0,0,0,33,4ZM4,28V6H32V28Z" />
  </svg>